<svg width="65" height="40" viewBox="0 0 65 40" fill="none" xmlns="http://www.w3.org/2000/svg">
<path d="M41.9832 4.27649H22.7315V35.7203H41.9832V4.27649Z" fill="#FF5F00"/>
<path d="M24.7144 20.001C24.712 16.9732 25.3984 13.9846 26.7216 11.2613C28.0447 8.53793 29.9701 6.15125 32.3518 4.28186C29.4019 1.96355 25.8593 0.521928 22.1288 0.121763C18.3983 -0.278403 14.6305 0.379032 11.256 2.01893C7.88153 3.65882 5.03647 6.21502 3.04601 9.39537C1.05555 12.5757 0 16.2519 0 20.0038C0 23.7556 1.05555 27.4318 3.04601 30.6122C5.03647 33.7925 7.88153 36.3487 11.256 37.9886C14.6305 39.6285 18.3983 40.2859 22.1288 39.8858C25.8593 39.4856 29.4019 38.044 32.3518 35.7257C29.9693 33.8557 28.0436 31.4681 26.7204 28.7438C25.3972 26.0194 24.7112 23.0297 24.7144 20.001Z" fill="#F24E1E"/>
<path d="M62.7958 32.3932V31.7489H63.0735V31.6156H62.4126V31.7489H62.6736V32.3932H62.7958ZM64.0789 32.3932V31.6156H63.8789L63.6457 32.171L63.4124 31.6156H63.2124V32.3932H63.3568V31.8045L63.5734 32.3099H63.7234L63.94 31.8045V32.3932H64.0789Z" fill="#F79E1B"/>
<path d="M64.7066 20.0012C64.7065 23.7533 63.6507 27.4297 61.6599 30.6102C59.6691 33.7906 56.8236 36.3468 53.4486 37.9865C50.0737 39.6261 46.3055 40.2831 42.5749 39.8824C38.8442 39.4817 35.3015 38.0393 32.3518 35.7203C34.7326 33.8492 36.6574 31.4619 37.9809 28.7384C39.3044 26.0149 39.9921 23.0264 39.9921 19.9984C39.9921 16.9703 39.3044 13.9818 37.9809 11.2584C36.6574 8.53487 34.7326 6.14754 32.3518 4.27648C35.3015 1.95745 38.8442 0.515124 42.5749 0.114384C46.3055 -0.286356 50.0737 0.370656 53.4486 2.01032C56.8236 3.64998 59.6691 6.20613 61.6599 9.38659C63.6507 12.567 64.7065 16.2435 64.7066 19.9956V20.0012Z" fill="#FFD25F"/>
</svg>
